HIERARCHY
ROOT Hips
{
	OFFSET 4.411066 101.972816 -4.785297
	CHANNELS 6 Xposition Yposition Zposition Xrotation Yrotation Zrotation
	JOINT Chest
	{
		OFFSET 1.393947 13.202904 -3.145559
		CHANNELS 3 Xrotation Yrotation Zrotation
		JOINT Chest2
		{
			OFFSET -3.714809 21.080490 0.938036
			CHANNELS 3 Xrotation Yrotation Zrotation
			JOINT Chest3
			{
				OFFSET 0.541956 14.870605 1.179568
				CHANNELS 3 Xrotation Yrotation Zrotation
				JOINT Neck
				{
					OFFSET 0.098039 17.279282 0.181172
					CHANNELS 3 Xrotation Yrotation Zrotation
					JOINT Head
					{
						OFFSET -2.951945 10.045410 0.451089
						CHANNELS 3 Xrotation Yrotation Zrotation
						End Site
						{
							OFFSET -2.905881 10.061127 0.396585
						}
					}
				}
				JOINT LeftCollar
				{
					OFFSET 2.953767 13.196732 4.350389
					CHANNELS 3 Xrotation Yrotation Zrotation
					JOINT LeftUpArm
					{
						OFFSET 17.514698 -0.711594 -1.108328
						CHANNELS 3 Xrotation Yrotation Zrotation
						JOINT LeftLowArm
						{
							OFFSET 32.370888 2.786316 9.170055
							CHANNELS 3 Xrotation Yrotation Zrotation
							JOINT LeftHand
							{
								OFFSET 11.477695 17.219650 21.741495
								CHANNELS 3 Xrotation Yrotation Zrotation
								End Site
								{
									OFFSET 2.508545 3.763443 4.751730
								}
							}
						}
					}
				}
				JOINT RightCollar
				{
					OFFSET -4.891610 13.273346 1.303544
					CHANNELS 3 Xrotation Yrotation Zrotation
					JOINT RightUpArm
					{
						OFFSET -14.903593 -1.817657 -9.114574
						CHANNELS 3 Xrotation Yrotation Zrotation
						JOINT RightLowArm
						{
							OFFSET -31.722324 -6.500778 9.548244
							CHANNELS 3 Xrotation Yrotation Zrotation
							JOINT RightHand
							{
								OFFSET -19.744263 15.415924 16.536863
								CHANNELS 3 Xrotation Yrotation Zrotation
								End Site
								{
									OFFSET -4.315292 3.369324 3.614295
								}
							}
						}
					}
				}
			}
		}
	}
	JOINT LeftUpLeg
	{
		OFFSET 5.504375 1.386162 8.258303
		CHANNELS 3 Xrotation Yrotation Zrotation
		JOINT LeftLowLeg
		{
			OFFSET -33.595909 17.498123 28.445021
			CHANNELS 3 Xrotation Yrotation Zrotation
			JOINT LeftFoot
			{
				OFFSET -31.332190 -29.827797 11.365032
				CHANNELS 3 Xrotation Yrotation Zrotation
				JOINT LeftToe
				{
					OFFSET -17.016647 7.837158 14.442032
					CHANNELS 3 Xrotation Yrotation Zrotation
					End Site
					{
						OFFSET -7.319633 19.875870 10.532417
					}
				}
			}
		}
	}
	JOINT RightUpLeg
	{
		OFFSET -5.504397 -1.386353 -8.258259
		CHANNELS 3 Xrotation Yrotation Zrotation
		JOINT RightLowLeg
		{
			OFFSET -0.396047 -47.356102 -1.119327
			CHANNELS 3 Xrotation Yrotation Zrotation
			JOINT RightFoot
			{
				OFFSET 7.041425 -43.322258 -8.612689
				CHANNELS 3 Xrotation Yrotation Zrotation
				JOINT RightToe
				{
					OFFSET -16.852417 -16.248375 3.397457
					CHANNELS 3 Xrotation Yrotation Zrotation
					End Site
					{
						OFFSET -22.949474 -1.663890 5.487183
					}
				}
			}
		}
	}
}
MOTION
Frames: 14
Frame Time: 0.033333
-0.161355 106.130402 -1.111725 25.721789 55.497398 -14.136674 -19.476214 -1.893385 -20.654982 -4.382154 -4.144218 8.026094 2.502861 -28.787936 -2.546174 5.423831 20.511683 -12.246079 -0.000000 0.000001 0.000001 11.183867 4.946817 0.401770 3.263494 -9.876214 -0.167337 24.258376 34.937664 -40.590510 -0.000002 0.000003 0.000001 7.803185 -19.606644 -0.625028 8.036045 -17.535035 -8.341187 33.640666 -13.424390 38.231168 0.000003 0.000001 -0.000003 43.920080 45.541424 61.850785 -13.059267 26.280917 -49.227144 -22.492680 -31.933238 7.505046 -0.000002 0.000000 0.000003 -7.961188 5.042840 -9.132786 -8.901857 -0.905898 -1.972977 2.613583 15.251713 -0.953766 -0.000000 0.000000 0.000001 
38.882149 93.042641 -1.090465 22.141877 58.346269 -8.201310 -15.062816 -1.953626 4.973649 -2.127410 2.418980 -4.986931 5.618358 -13.225734 4.109341 -9.168164 -1.843639 -0.948094 -0.000003 0.000003 -0.000000 4.671889 -4.566156 8.633717 13.337940 -31.858219 9.818297 -3.982032 -16.177204 38.963740 0.000000 0.000003 0.000001 19.112445 12.533888 -22.053747 17.065894 62.227839 -34.131548 -4.822324 -3.652302 -24.720167 0.000003 0.000002 -0.000000 33.757418 29.844727 43.184387 -3.139576 11.054889 -0.104096 -8.906982 0.633640 -12.951729 -0.000002 -0.000002 -0.000000 17.419592 -15.166034 -55.536357 -21.300109 -15.057895 53.495691 6.952056 -3.655139 21.290922 0.000001 0.000000 0.000003 
38.743027 93.043732 -1.076720 21.560605 57.903243 -8.175222 -15.466707 -1.932401 4.321392 -1.935761 2.430469 -4.958538 5.126076 -13.876988 3.815552 -8.562475 -1.406687 -0.755648 -0.000002 0.000005 0.000002 4.609271 -4.373872 8.501922 12.749595 -30.530748 10.204876 -2.309465 -17.972477 38.754575 -0.000001 -0.000002 0.000002 17.963853 12.025393 -20.382693 11.497371 62.614147 -24.811092 -3.100341 1.968470 -24.928645 -0.000001 -0.000001 -0.000002 33.146317 31.419540 44.066943 -2.989883 9.854122 -0.296049 -8.887625 0.761699 -13.273249 -0.000002 0.000001 0.000001 17.533009 -14.898425 -54.548981 -20.575998 -14.153858 52.651978 7.165407 -5.109307 18.818903 -0.000000 0.000001 0.000001 
38.530502 93.038048 -1.070618 20.658307 57.193190 -7.533062 -15.071388 -1.802179 4.434981 -2.418899 1.869543 -4.675410 5.491307 -15.768574 3.378599 -7.505168 -0.572921 -1.409110 -0.000000 -0.000002 -0.000000 3.792057 -5.864048 9.976190 11.022889 -29.513077 8.989372 1.760018 -21.358212 36.885600 -0.000000 -0.000003 -0.000000 16.012320 10.724316 -19.416163 2.691045 63.096837 -11.156632 -1.311748 8.807216 -25.648479 -0.000001 0.000003 -0.000003 32.313898 33.009625 44.816775 -2.297335 8.810673 -0.398406 -8.556703 1.413177 -13.700111 -0.000003 0.000000 0.000001 17.777172 -14.748936 -53.008374 -18.778010 -12.570326 50.120700 8.502166 -8.116098 16.688360 0.000000 0.000002 -0.000000 
38.194435 93.041695 -1.052229 19.301145 56.365907 -6.498710 -14.910820 -1.775568 3.956095 -2.637839 1.219930 -3.806492 5.849525 -17.764096 2.881215 -5.854873 1.227025 -2.007737 0.000000 0.000003 -0.000000 4.048234 -7.720071 12.234141 11.131222 -30.624847 8.996879 4.107191 -22.807421 36.747203 0.000002 0.000002 0.000003 14.470808 8.521734 -18.219036 -4.448203 61.083912 2.220340 -0.023623 14.011109 -29.325410 0.000001 0.000001 -0.000002 31.892837 35.033666 45.733492 -1.829927 8.385840 -0.804110 -8.942948 1.061075 -13.687969 -0.000003 -0.000003 0.000001 17.212538 -14.428290 -52.017724 -15.387904 -10.377308 47.281018 8.887125 -9.198269 15.528585 -0.000000 0.000005 0.000001 
37.820137 93.049835 -1.032314 18.451701 56.077352 -5.848022 -14.751025 -1.774106 3.421551 -3.033479 0.916286 -3.378233 6.409354 -19.505256 3.040462 -4.692246 3.181283 -2.806419 0.000000 0.000006 0.000001 4.140023 -7.888327 14.821832 12.773862 -32.928844 9.355885 3.966914 -23.597720 40.323668 0.000001 0.000001 0.000002 14.009557 6.816484 -17.293354 -8.662186 59.298090 12.943223 1.209610 19.379620 -36.064372 -0.000001 -0.000002 0.000002 31.708095 36.386375 46.567963 -1.697327 8.195237 -1.327412 -9.054883 0.924876 -13.323939 -0.000001 -0.000002 -0.000001 17.175028 -14.135157 -50.913190 -13.014878 -9.043620 44.471987 9.206256 -9.515453 15.050250 0.000001 -0.000002 0.000003 
37.295006 93.088409 -0.979900 17.668093 54.480355 -4.638414 -13.250065 -1.639195 2.344650 -3.811385 -0.533486 -1.253378 6.193632 -20.770803 1.311669 -3.797816 3.968588 -3.412600 -0.000001 0.000005 0.000002 6.306790 -12.572326 19.533535 15.885459 -40.895030 16.825884 1.941120 -16.108972 33.706850 0.000002 0.000003 -0.000000 13.380106 5.173311 -16.074309 -4.058589 59.144418 6.783460 -0.684846 8.984662 -29.132184 0.000004 -0.000003 0.000001 30.738686 37.795750 47.609827 -1.988125 7.449967 -1.945115 -8.322054 1.083365 -12.703506 -0.000000 0.000000 0.000001 15.443660 -12.985225 -51.616344 -11.022680 -7.396611 41.931962 8.517935 -7.374899 16.764095 0.000002 0.000006 0.000001 
36.626167 93.149712 -0.927063 16.372684 52.045792 -3.919178 -13.635703 -1.592950 1.052318 -4.866823 -2.275277 0.945652 6.355161 -22.401091 -1.751815 -2.516966 6.285848 -5.601201 0.000000 0.000010 0.000002 8.674023 -16.972643 24.013702 20.092002 -49.142357 23.289629 0.590078 -9.498310 28.348007 0.000000 -0.000002 -0.000000 13.529236 4.468589 -16.266143 1.995732 57.035092 -2.036277 3.244031 6.104712 -20.182782 -0.000000 -0.000000 0.000001 30.118887 40.073137 49.360633 -2.368184 7.984337 -2.725866 -7.586381 1.289018 -11.674468 -0.000003 -0.000001 0.000003 12.979628 -11.458862 -51.737720 -9.460737 -6.743926 40.929967 8.493804 -6.994330 15.619994 -0.000000 0.000001 0.000002 
35.914928 93.255775 -0.872338 15.249748 48.355533 -3.375487 -13.146584 -1.519653 0.017408 -6.742854 -4.842145 2.998704 6.783661 -24.273195 -4.389354 -1.569931 8.270849 -7.478299 -0.000000 0.000005 -0.000000 10.299491 -20.499213 26.140690 22.610122 -55.792735 25.693973 1.864165 -4.618658 20.527312 -0.000000 -0.000001 0.000001 10.572343 3.884076 -10.675494 -3.861704 55.294749 9.010908 1.882259 -1.700490 -15.677731 -0.000005 0.000003 -0.000002 29.224494 42.808364 51.438913 -2.756151 7.609290 -3.831041 -5.308101 2.396700 -9.762669 -0.000006 -0.000002 -0.000001 9.313864 -9.560174 -52.132877 -6.664398 -5.550169 41.018541 7.571881 -5.585933 14.330087 0.000002 -0.000001 0.000003 
34.930382 93.481384 -0.813818 14.631706 43.436445 -3.225172 -12.820442 -1.274277 -2.285692 -8.682032 -7.223163 4.709033 6.796211 -27.159735 -6.622382 1.605057 10.651286 -8.798291 -0.000001 0.000001 0.000001 11.525298 -23.117137 27.753297 29.365295 -64.286287 33.309637 2.301636 2.949195 12.688319 0.000003 -0.000003 0.000001 7.797375 2.649056 -5.699916 -7.300785 51.381143 17.442478 1.148294 -5.944734 -13.514050 0.000002 0.000002 -0.000000 27.896736 46.907909 55.223773 -4.338767 7.227479 -6.978570 -2.310983 4.056771 -7.835995 -0.000003 -0.000003 0.000001 5.242200 -6.668086 -50.647168 -4.407810 -3.754864 40.197641 6.331285 -5.014619 10.884083 0.000001 0.000003 0.000001 
33.579102 93.871338 -0.760046 14.138475 37.371708 -3.358105 -13.558680 -0.985728 -5.635065 -10.737217 -9.506432 5.873609 7.723294 -30.931369 -8.229565 4.746102 12.992721 -10.455027 0.000001 0.000001 0.000001 13.458957 -26.681371 29.367778 36.222727 -70.228319 40.746299 2.667458 9.291908 5.756226 0.000004 -0.000002 0.000003 5.158648 -0.096153 -2.397680 -8.816010 45.238235 24.703269 0.923723 -0.290315 -15.389975 0.000002 -0.000001 -0.000002 25.976377 52.181552 60.995017 -6.254568 8.561433 -11.942969 -0.583302 2.485901 -2.822485 0.000001 -0.000001 0.000003 1.074329 -3.703148 -46.300555 -2.381332 -2.616358 36.259336 4.418720 -2.859630 8.284358 -0.000000 0.000003 0.000001 
32.112526 94.313690 -0.721957 13.409979 31.595898 -2.891929 -13.743754 -0.684344 -7.966704 -11.119084 -10.794749 7.128923 7.285484 -35.138967 -9.652201 7.645409 15.557518 -13.017288 -0.000000 0.000003 0.000002 14.148902 -29.499399 29.150728 35.609386 -72.741200 41.233671 3.853643 11.167784 -0.510789 0.000000 -0.000002 -0.000000 2.429049 -3.853649 -1.976033 -6.336521 35.254356 26.152263 4.417994 12.358300 -14.905850 0.000004 0.000003 -0.000003 24.668133 56.538069 66.920636 -7.914839 9.726080 -16.461089 1.449525 1.845283 1.519533 -0.000002 -0.000003 0.000001 -3.383258 -1.156487 -43.097107 0.324809 -1.125065 33.358422 2.368897 -0.015270 7.089279 0.000000 -0.000002 0.000001 
30.282396 94.889320 -0.674922 14.313842 25.812548 -2.206936 -15.366276 -0.317231 -10.883181 -11.993495 -11.703778 7.246804 7.647171 -39.284567 -10.445017 8.204503 16.604475 -14.823320 -0.000001 -0.000002 -0.000002 14.876521 -31.966143 31.204723 31.325693 -69.939156 41.677842 1.430178 13.424295 -1.424909 -0.000006 -0.000001 0.000003 0.619856 -5.248774 -2.334085 -4.319263 28.908803 20.961808 6.059271 21.171809 -15.564031 -0.000001 0.000002 -0.000000 21.647093 59.012561 71.396582 -8.571581 10.508234 -17.836868 3.073761 1.157309 4.917220 -0.000001 -0.000002 -0.000001 -7.752773 1.073229 -39.285701 1.526588 -0.467280 29.829864 0.237086 2.782900 5.135314 0.000001 0.000000 0.000001 
28.140720 95.481491 -0.610372 15.736532 20.690412 -0.879236 -17.379572 0.099435 -13.903007 -11.186381 -11.015581 7.199018 7.059487 -42.681576 -10.351836 7.312430 16.981454 -15.314385 0.000001 0.000001 -0.000001 13.692274 -30.343255 31.658914 27.161726 -64.941603 40.702269 -5.383390 16.296676 5.604291 0.000003 -0.000002 -0.000003 0.940911 -6.920597 -5.023465 -2.229687 28.390339 11.214706 3.294267 19.273008 -19.964231 -0.000002 0.000001 -0.000007 19.114733 58.995110 71.559195 -8.569353 9.608568 -18.048205 2.247678 -2.276460 7.747667 -0.000001 -0.000001 0.000002 -10.939064 2.455195 -35.487990 2.467166 0.146464 27.002111 -1.527629 5.128934 2.112143 0.000000 0.000001 0.000001 
